<?xml version="1.0" standalone="no"?>
<!DOCTYPE svg PUBLIC "-//W3C//DTD SVG 20010904//EN"
 "http://www.w3.org/TR/2001/REC-SVG-20010904/DTD/svg10.dtd">
<svg version="1.0" xmlns="http://www.w3.org/2000/svg"
 width="1437.000000pt" height="764.000000pt" viewBox="0 0 1437.000000 764.000000"
 preserveAspectRatio="xMidYMid meet">

<g transform="translate(0.000000,764.000000) scale(0.100000,-0.100000)"
fill="#000000" stroke="none">
<path d="M0 3820 l0 -3820 7185 0 7185 0 0 3820 0 3820 -7185 0 -7185 0 0
-3820z m1508 3184 c137 -57 174 -227 72 -332 -117 -121 -327 -52 -346 114 -8
63 8 114 49 161 59 67 148 90 225 57z m1052 -59 c0 -35 0 -35 44 -35 43 0 45
1 48 32 2 17 9 33 16 36 9 3 12 -17 12 -77 0 -65 -3 -81 -15 -81 -10 0 -15 11
-15 35 0 35 0 35 -45 35 -45 0 -45 0 -45 -35 0 -19 -4 -35 -10 -35 -6 0 -10
33 -10 80 0 47 4 80 10 80 6 0 10 -16 10 -35z m278 19 c32 -22 43 -57 31 -94
-29 -82 -159 -60 -159 27 0 67 74 105 128 67z m122 -50 l27 -46 32 56 c18 31
37 56 42 56 5 0 9 -36 9 -80 0 -47 -4 -80 -10 -80 -5 0 -10 26 -10 58 l0 57
-27 -47 c-14 -27 -30 -48 -34 -48 -4 0 -19 19 -33 43 l-26 42 0 -52 c0 -40 -4
-53 -15 -53 -12 0 -15 15 -15 73 0 105 10 108 60 21z m270 56 c0 -5 -20 -10
-45 -10 -41 0 -45 -2 -45 -25 0 -22 4 -25 40 -25 22 0 40 -4 40 -10 0 -5 -18
-10 -40 -10 -36 0 -40 -2 -40 -25 0 -23 4 -25 45 -25 25 0 45 -4 45 -10 0 -6
-27 -10 -60 -10 l-60 0 0 73 c0 41 3 77 7 80 10 11 113 8 113 -3z m496 -52
l20 -62 23 63 c12 34 28 60 34 58 6 -2 20 -30 30 -62 l20 -59 21 59 c33 91 49
79 18 -14 -14 -45 -32 -81 -39 -81 -6 0 -20 25 -29 55 -10 30 -21 55 -24 55
-3 0 -14 -25 -24 -55 -9 -30 -23 -55 -29 -55 -7 0 -25 36 -39 80 -18 55 -22
80 -14 80 7 0 21 -28 32 -62z m234 27 c0 -35 0 -35 45 -35 45 0 45 0 45 35 0
19 5 35 10 35 6 0 10 -33 10 -80 0 -47 -4 -80 -10 -80 -5 0 -10 16 -10 35 0
35 0 35 -45 35 -45 0 -45 0 -45 -35 0 -19 -4 -35 -10 -35 -6 0 -10 33 -10 80
0 47 4 80 10 80 6 0 10 -16 10 -35z m284 14 c56 -44 21 -139 -53 -139 -49 0
-81 32 -81 81 0 44 35 79 80 79 15 0 39 -9 54 -21z m142 -34 c10 -30 21 -55
24 -55 3 0 14 25 24 56 10 30 22 54 28 52 7 -3 20 -28 30 -58 10 -29 20 -55
22 -57 2 -2 12 20 21 49 18 54 31 76 40 67 9 -10 -47 -159 -59 -159 -7 0 -21
25 -31 55 -11 30 -21 52 -24 49 -4 -3 -13 -26 -22 -52 -23 -69 -41 -65 -67 16
-24 76 -27 92 -13 92 6 0 18 -25 27 -55z m324 45 c0 -5 -20 -10 -45 -10 -41 0
-45 -2 -45 -25 0 -22 4 -25 40 -25 22 0 40 -4 40 -10 0 -5 -18 -10 -40 -10
-36 0 -40 -2 -40 -25 0 -23 3 -25 50 -25 28 0 50 -4 50 -10 0 -6 -27 -10 -60
-10 l-60 0 0 80 0 80 55 0 c30 0 55 -4 55 -10z m199 -65 c18 -42 31 -78 28
-81 -9 -9 -27 6 -27 22 0 10 -12 14 -44 14 -36 0 -46 -4 -51 -20 -3 -11 -12
-20 -20 -20 -10 0 -3 23 22 80 20 44 41 80 47 80 6 0 26 -34 45 -75z m159 59
c26 -18 29 -56 6 -79 -15 -15 -15 -17 1 -35 10 -11 15 -23 11 -28 -4 -4 -18 5
-31 21 -31 35 -65 37 -65 2 0 -16 -6 -25 -15 -25 -12 0 -15 15 -15 73 0 41 3
77 7 80 12 13 79 7 101 -9z m172 6 c0 -5 -20 -10 -45 -10 -41 0 -45 -2 -45
-25 0 -22 4 -25 40 -25 22 0 40 -4 40 -10 0 -5 -18 -10 -40 -10 -36 0 -40 -2
-40 -25 0 -23 4 -25 45 -25 25 0 45 -4 45 -10 0 -6 -27 -10 -60 -10 l-60 0 0
73 c0 41 3 77 7 80 10 11 113 8 113 -3z m594 -11 c56 -44 21 -139 -53 -139
-49 0 -81 32 -81 81 0 44 35 79 80 79 15 0 39 -9 54 -21z m76 -23 c0 -64 14
-96 43 -96 36 0 47 19 47 82 0 32 4 58 10 58 17 0 12 -126 -6 -144 -24 -24
-80 -20 -98 6 -18 25 -22 138 -6 138 6 0 10 -20 10 -44z m258 28 c26 -18 31
-71 7 -81 -14 -5 -14 -8 0 -30 23 -35 8 -44 -19 -10 -28 35 -66 37 -66 2 0
-14 -4 -25 -10 -25 -6 0 -10 33 -10 80 l0 80 38 0 c21 0 48 -7 60 -16z m196
10 c28 -11 17 -21 -21 -20 -31 1 -38 -3 -38 -18 0 -12 11 -22 34 -30 90 -30
48 -105 -45 -82 -41 11 -26 24 24 23 58 -2 66 22 12 39 -19 6 -40 21 -48 32
-12 18 -11 23 7 41 21 21 46 26 75 15z m166 -4 c0 -5 -20 -10 -45 -10 -41 0
-45 -2 -45 -25 0 -22 4 -25 40 -25 22 0 40 -4 40 -10 0 -5 -18 -10 -40 -10
-36 0 -40 -2 -40 -25 0 -23 4 -25 45 -25 25 0 45 -4 45 -10 0 -5 -25 -10 -55
-10 l-55 0 0 80 0 80 55 0 c30 0 55 -4 55 -10z m138 -6 c26 -18 31 -71 7 -81
-14 -5 -14 -8 0 -30 23 -35 8 -44 -19 -10 -28 35 -66 37 -66 2 0 -14 -4 -25
-10 -25 -6 0 -10 33 -10 80 l0 80 38 0 c21 0 48 -7 60 -16z m80 -44 c15 -33
29 -60 32 -60 3 0 17 27 32 60 14 33 31 60 37 60 12 0 8 -11 -33 -102 -14 -32
-31 -58 -36 -58 -6 0 -27 34 -46 76 -38 84 -38 84 -23 84 6 0 23 -27 37 -60z
m152 -20 c0 -64 -3 -80 -15 -80 -12 0 -15 15 -15 73 0 41 3 77 7 80 17 18 23
0 23 -73z m151 69 c28 -15 13 -31 -16 -17 -56 26 -105 -35 -70 -88 15 -24 21
-26 62 -20 40 5 44 4 33 -9 -7 -9 -29 -15 -50 -15 -30 0 -43 6 -59 26 -56 72
20 166 100 123z m159 1 c0 -5 -20 -10 -45 -10 -41 0 -45 -2 -45 -25 0 -22 4
-25 40 -25 22 0 40 -4 40 -10 0 -5 -18 -10 -40 -10 -36 0 -40 -2 -40 -25 0
-23 4 -25 45 -25 25 0 45 -4 45 -10 0 -5 -25 -10 -55 -10 l-55 0 0 80 0 80 55
0 c30 0 55 -4 55 -10z m114 4 c28 -11 17 -21 -21 -20 -31 1 -38 -3 -38 -18 0
-12 11 -22 34 -30 90 -30 48 -105 -45 -82 -41 11 -26 24 24 23 58 -2 66 22 12
39 -19 6 -40 21 -48 32 -12 18 -11 23 7 41 21 21 46 26 75 15z m594 -10 c28
-20 30 -69 3 -84 -11 -5 -33 -10 -50 -10 -26 0 -31 -4 -31 -25 0 -14 -4 -25
-10 -25 -6 0 -10 33 -10 80 l0 80 38 0 c21 0 48 -7 60 -16z m162 -4 c24 -24
25 -38 5 -68 -14 -19 -14 -24 1 -47 14 -21 14 -25 2 -25 -8 0 -21 11 -28 25
-18 34 -63 32 -68 -2 -2 -13 -8 -23 -13 -23 -5 0 -9 36 -9 80 l0 80 45 0 c32
0 51 -6 65 -20z m168 4 c46 -32 48 -97 4 -130 -28 -22 -80 -17 -107 11 -69 68
24 175 103 119z m130 -55 c-3 -80 -16 -97 -61 -85 -38 9 -34 24 6 22 l32 -1 3
58 3 57 -31 0 c-18 0 -29 4 -25 10 3 6 22 10 41 10 l35 0 -3 -71z m157 61 c4
-6 -12 -10 -39 -10 -42 0 -46 -2 -46 -25 0 -22 4 -25 40 -25 22 0 40 -4 40
-10 0 -5 -18 -10 -40 -10 -36 0 -40 -2 -40 -25 0 -23 4 -25 45 -25 25 0 45 -4
45 -10 0 -6 -27 -10 -60 -10 l-60 0 0 73 c0 41 3 77 7 80 10 11 101 8 108 -3z
m146 0 c13 -7 19 -7 19 0 0 6 27 10 65 10 37 0 65 -4 65 -10 0 -5 -13 -10 -30
-10 l-30 0 0 -70 c0 -40 -4 -70 -10 -70 -6 0 -10 30 -10 70 0 68 -1 70 -24 70
-14 0 -27 -4 -30 -9 -4 -5 -18 -5 -35 2 -62 23 -110 -53 -61 -98 15 -14 29
-16 61 -11 37 6 41 5 29 -9 -19 -23 -79 -19 -107 7 -33 31 -32 90 3 117 29 23
64 27 95 11z m243 4 c28 -11 17 -21 -21 -20 -57 2 -56 -26 2 -48 35 -14 45
-23 45 -40 0 -12 -5 -27 -12 -34 -17 -17 -83 -15 -97 2 -10 12 -5 14 35 13 64
-3 68 18 10 43 -37 15 -46 24 -46 44 0 36 42 56 84 40z m601 -4 c4 -6 -7 -10
-24 -10 l-31 0 0 -70 c0 -40 -4 -70 -10 -70 -6 0 -10 30 -10 70 0 68 -1 70
-25 70 -14 0 -25 5 -25 10 0 6 26 10 59 10 33 0 63 -4 66 -10z m130 0 c4 -6
-12 -10 -39 -10 -42 0 -46 -2 -46 -25 0 -22 4 -25 40 -25 22 0 40 -4 40 -10 0
-5 -18 -10 -40 -10 -36 0 -40 -2 -40 -25 0 -23 4 -25 45 -25 25 0 45 -4 45
-10 0 -6 -27 -10 -60 -10 l-60 0 0 73 c0 41 3 77 7 80 10 11 101 8 108 -3z
m126 -37 c50 -112 50 -113 35 -113 -7 0 -16 9 -19 20 -8 30 -79 28 -100 -2 -8
-13 -18 -20 -21 -17 -9 8 61 159 73 159 6 0 20 -21 32 -47z m119 -9 l32 -55
32 52 c17 28 36 51 41 51 6 -1 11 -36 13 -77 2 -62 0 -75 -13 -75 -12 0 -15
12 -15 53 l0 52 -26 -42 c-14 -24 -29 -43 -33 -43 -4 0 -20 21 -34 48 l-27 47
0 -57 c0 -32 -4 -58 -10 -58 -6 0 -10 33 -10 80 0 44 4 80 9 80 5 0 24 -25 41
-56z m708 44 c20 -20 13 -27 -17 -15 -40 15 -81 -11 -81 -53 0 -43 26 -63 72
-57 21 3 38 2 38 -3 0 -20 -68 -27 -100 -10 -25 13 -41 65 -30 94 17 47 89 73
118 44z m146 1 c50 -23 57 -103 13 -134 -47 -33 -119 -10 -131 41 -18 70 50
124 118 93z m137 -46 l44 -57 3 57 c5 86 22 68 22 -23 0 -44 -4 -80 -9 -80 -5
0 -28 26 -52 58 l-44 57 -3 -57 c-5 -87 -22 -69 -22 22 0 44 4 80 9 80 5 0 28
-26 52 -57z m224 47 c4 -6 -7 -10 -24 -10 l-31 0 0 -70 c0 -40 -4 -70 -10 -70
-6 0 -10 30 -10 70 l0 70 -31 0 c-17 0 -28 4 -24 10 3 6 33 10 65 10 32 0 62
-4 65 -10z m114 -65 c18 -42 31 -78 28 -81 -9 -9 -27 6 -27 22 0 10 -12 14
-44 14 -36 0 -46 -4 -51 -20 -3 -11 -12 -20 -20 -20 -10 0 -3 23 22 80 20 44
41 80 47 80 6 0 26 -34 45 -75z m162 65 c13 -7 19 -7 19 0 0 6 27 10 65 10 37
0 65 -4 65 -10 0 -5 -11 -10 -25 -10 -24 0 -25 -2 -25 -70 0 -40 -4 -70 -10
-70 -6 0 -10 30 -10 70 l0 70 -29 0 c-17 0 -32 -4 -36 -10 -3 -6 -15 -5 -30 2
-56 26 -105 -35 -70 -88 15 -24 21 -26 62 -20 40 5 44 4 33 -9 -19 -23 -80
-19 -107 7 -66 62 17 171 98 128z m1846 -3412 c-1 -277 -2 -51 -2 502 0 553 1
779 2 503 2 -277 2 -729 0 -1005z m-2439 1284 c2 -13 -3 -25 -13 -28 -22 -9
-29 1 -21 31 8 31 30 28 34 -3z m-53 -62 c-3 -5 -10 -10 -16 -10 -5 0 -9 5 -9
10 0 6 7 10 16 10 8 0 12 -4 9 -10z m-45 -44 c0 -2 -7 -9 -15 -16 -12 -10 -15
-10 -15 4 0 9 7 16 15 16 8 0 15 -2 15 -4z m-54 -58 c-3 -7 -9 -20 -12 -28 -3
-9 -15 -20 -27 -25 -12 -6 -23 -20 -25 -32 -2 -13 -10 -23 -19 -23 -8 0 -12 5
-9 13 3 6 9 19 12 29 3 9 14 18 25 21 10 3 19 14 19 24 0 23 8 33 28 33 7 0
11 -6 8 -12z m-158 -196 c2 -7 -4 -15 -13 -18 -20 -8 -27 -1 -19 20 7 18 25
17 32 -2z m-54 -51 c3 -5 -1 -14 -8 -20 -16 -13 -32 2 -21 19 8 12 22 13 29 1z
m-54 -75 c0 -33 -10 -57 -21 -50 -10 6 -12 57 -2 67 13 14 23 6 23 -17z m-40
-85 c0 -10 -11 -29 -25 -42 -13 -13 -25 -33 -25 -45 0 -11 -6 -29 -14 -39 -12
-17 -18 -18 -40 -7 -14 6 -26 16 -26 20 0 22 43 62 66 62 20 0 24 5 24 28 0
16 3 32 7 35 13 14 33 6 33 -12z m-100 -289 c0 -30 -28 -84 -40 -77 -14 8 -12
97 1 132 l11 28 14 -30 c7 -16 13 -40 14 -53z m-8940 43 c0 -24 -2 -25 -65
-25 l-65 0 -2 -172 -3 -173 -27 -3 -28 -3 0 175 0 176 -70 0 c-68 0 -70 1 -70
25 l0 25 165 0 165 0 0 -25z m319 9 c45 -18 67 -45 76 -97 9 -48 -10 -102 -47
-131 l-31 -23 40 -54 c59 -81 59 -79 21 -79 -29 0 -38 8 -73 60 l-40 60 -62 0
-62 0 -3 -57 c-3 -55 -4 -58 -30 -61 l-28 -3 0 200 0 201 100 0 c68 0 112 -5
139 -16z m426 -131 c37 -82 78 -172 91 -200 l24 -53 -31 0 c-27 0 -33 6 -52
50 l-22 50 -106 0 -105 0 -21 -50 c-19 -45 -25 -50 -52 -50 l-30 0 35 78 c154
339 145 322 174 322 25 0 32 -11 95 -147z m450 128 c106 -49 146 -166 93 -271
-42 -82 -108 -110 -260 -110 l-98 0 0 200 0 200 113 0 c88 0 121 -4 152 -19z
m505 -6 l0 -25 -115 0 -116 0 3 -57 3 -58 98 -3 c96 -3 97 -3 97 -27 0 -25 0
-25 -100 -25 l-100 0 0 -60 0 -59 118 -3 117 -3 0 -25 0 -25 -142 -3 -143 -3
0 201 0 200 140 0 140 0 0 -25z m7180 -189 c0 -38 -6 -60 -20 -79 -11 -13 -25
-48 -31 -76 -6 -28 -17 -58 -25 -65 -7 -8 -16 -33 -20 -56 -4 -23 -17 -56 -29
-73 -12 -18 -26 -51 -32 -72 -6 -22 -16 -53 -21 -70 -28 -80 -62 -217 -62
-247 0 -18 -8 -46 -19 -61 -24 -38 -31 -20 -31 82 0 56 5 83 17 101 10 14 20
54 24 89 5 48 12 68 27 80 12 9 25 35 31 59 5 24 16 49 24 55 7 7 19 37 26 69
7 31 19 59 27 62 7 3 14 16 14 28 0 45 20 97 40 103 16 5 20 15 20 50 0 53 8
75 26 75 10 0 14 -14 14 -54z m-3390 -981 l0 -385 -2905 0 -2905 0 0 385 0
385 2905 0 2905 0 0 -385z m2614 327 c9 -14 -6 -52 -20 -52 -16 0 -37 37 -29
50 7 12 42 13 49 2z m-994 -313 c0 -5 -7 -9 -15 -9 -15 0 -20 12 -9 23 8 8 24
-1 24 -14z m4780 -95 c0 -17 -26 -19 -36 -3 -7 12 15 31 28 23 4 -3 8 -12 8
-20z m131 -61 c5 -13 9 -38 9 -54 0 -22 -5 -29 -20 -29 -14 0 -20 7 -20 24 0
35 -10 56 -26 56 -10 0 -14 -12 -14 -40 0 -33 -3 -40 -20 -40 -18 0 -20 7 -20
54 l0 55 38 3 c50 4 62 0 73 -29z m-131 -28 c0 -48 -2 -55 -20 -55 -18 0 -20
7 -20 55 0 48 2 55 20 55 18 0 20 -7 20 -55z m-4772 -50 c10 -22 9 -25 -8 -25
-15 0 -20 7 -20 25 0 14 4 25 8 25 5 0 14 -11 20 -25z m-265 -67 c19 -10 22
-43 7 -84 -10 -26 -12 -27 -74 -21 -74 7 -118 25 -114 45 2 8 25 30 52 49 50
35 79 37 129 11z m5153 -82 c15 -12 19 -27 19 -75 0 -36 -5 -65 -13 -73 -18
-18 -124 -17 -145 1 -23 19 -23 117 0 143 20 22 110 25 139 4z m-5275 -160
c38 -22 33 -38 -15 -50 -28 -8 -40 -6 -51 5 -14 13 -13 20 2 57 15 35 19 39
26 23 5 -9 22 -26 38 -35z m5259 -131 c0 -8 -7 -15 -15 -15 -8 0 -15 -7 -15
-15 0 -8 7 -15 15 -15 8 0 15 -9 15 -20 0 -11 -6 -20 -14 -20 -10 0 -16 -14
-18 -42 -2 -31 -8 -44 -20 -46 -15 -3 -18 4 -18 42 0 34 -4 46 -15 46 -8 0
-15 9 -15 20 0 11 6 20 14 20 7 0 16 14 20 30 5 25 10 30 36 30 20 0 30 -5 30
-15z m-11605 -142 c70 -36 105 -94 105 -177 0 -66 -12 -101 -48 -140 -58 -62
-174 -85 -248 -50 -48 23 -101 86 -115 136 -27 101 37 216 136 244 56 15 124
10 170 -13z m1057 16 c21 -5 50 -21 65 -34 26 -22 27 -25 12 -40 -15 -15 -19
-15 -58 6 -77 40 -174 16 -215 -53 -20 -33 -21 -110 -1 -148 32 -61 119 -94
189 -70 l36 12 0 69 0 69 30 0 31 0 -3 -82 -3 -83 -45 -22 c-77 -40 -187 -26
-249 30 -60 55 -78 165 -40 244 24 51 65 82 128 99 58 16 77 16 123 3z m448 0
c93 -21 150 -95 150 -193 0 -66 -12 -101 -48 -140 -86 -91 -236 -88 -320 8
-94 107 -42 285 93 321 62 17 69 17 125 4z m490 0 c93 -21 150 -95 150 -193 0
-66 -12 -101 -48 -140 -58 -62 -174 -85 -248 -50 -48 23 -101 86 -115 136 -27
101 38 217 136 243 62 17 69 17 125 4z m-2360 -24 l0 -25 -115 0 -115 0 0 -65
0 -65 101 0 100 0 -3 -27 -3 -28 -97 -3 -98 -3 0 -80 0 -80 -27 3 -28 3 -3
198 -2 197 145 0 145 0 0 -25z m819 9 c45 -18 67 -45 76 -97 9 -48 -10 -102
-47 -131 l-31 -23 40 -54 c59 -80 58 -79 23 -79 -26 0 -37 9 -73 59 l-42 60
-62 0 -62 1 -3 -57 c-3 -55 -4 -58 -30 -61 l-28 -3 0 200 0 201 100 0 c68 0
112 -5 139 -16z m2044 5 c161 -44 184 -283 34 -361 -35 -18 -62 -23 -159 -26
l-118 -4 0 201 0 201 103 0 c56 0 119 -5 140 -11z m4377 -169 c0 -5 -5 -10
-11 -10 -5 0 -7 5 -4 10 3 6 8 10 11 10 2 0 4 -4 4 -10z m111 -63 c-13 -13
-31 0 -24 19 4 11 8 12 20 3 9 -8 10 -16 4 -22z m4627 -15 c2 -31 -1 -42 -11
-42 -9 0 -12 9 -9 30 2 17 0 30 -5 30 -5 0 -14 -13 -20 -30 -12 -32 -33 -39
-53 -16 -14 18 -10 58 8 64 9 3 11 -3 7 -21 -8 -31 11 -45 21 -15 19 63 58 63
62 0z m0 -107 c2 -51 -13 -65 -73 -65 -52 0 -40 24 14 28 37 3 42 6 39 25 -2
17 -11 23 -42 27 -63 8 -58 30 7 30 l54 0 1 -45z m-31 -151 c41 -18 42 -32 3
-47 -16 -6 -30 -14 -30 -18 0 -4 14 -12 30 -18 17 -5 30 -15 30 -21 0 -10 -36
-29 -87 -44 -38 -12 -26 12 12 25 43 16 44 24 3 35 -45 13 -45 29 -1 47 l38
15 -37 16 c-21 9 -38 21 -38 27 0 11 19 7 77 -17z m15 -171 c44 -40 2 -115
-54 -94 -42 16 -50 59 -18 91 24 24 47 25 72 3z m18 -133 c0 -6 -32 -10 -75
-10 -43 0 -75 4 -75 10 0 6 32 10 75 10 43 0 75 -4 75 -10z m-11332 -69 c3
-10 -2 -11 -19 -5 -36 11 -62 7 -76 -12 -29 -39 -3 -84 48 -84 24 0 29 4 29
25 0 14 5 25 10 25 17 0 12 -57 -6 -64 -73 -28 -145 47 -100 106 27 36 103 42
114 9z m1357 -2 c-3 -4 -16 -4 -29 1 -53 20 -99 -45 -60 -84 24 -24 68 -17 72
12 5 32 22 27 22 -7 0 -31 -14 -41 -61 -41 -76 0 -97 105 -26 135 32 13 92 2
82 -16z m9975 21 c0 -6 -32 -10 -75 -10 -43 0 -75 4 -75 10 0 6 32 10 75 10
43 0 75 -4 75 -10z m-12254 -45 c14 -25 28 -45 30 -45 2 0 15 20 30 45 14 25
30 45 35 45 5 0 9 -31 9 -70 0 -40 -4 -70 -10 -70 -5 0 -10 21 -10 48 l-1 47
-22 -37 c-12 -21 -27 -38 -33 -38 -6 0 -19 17 -30 38 l-19 37 -3 -47 c-5 -74
-22 -57 -22 22 0 39 4 70 10 70 5 0 21 -20 36 -45z m158 20 c3 -13 11 -37 17
-52 l11 -28 17 49 c10 28 22 51 28 53 6 2 20 -20 31 -49 l20 -53 11 28 c6 15
14 39 17 52 3 14 10 25 15 25 13 0 12 -9 -12 -78 -22 -65 -42 -79 -53 -37 -3
13 -11 37 -17 52 l-11 28 -18 -50 c-9 -27 -23 -50 -30 -50 -7 0 -23 30 -36 68
-17 51 -19 67 -9 67 7 0 16 -11 19 -25z m269 18 c-38 -4 -43 -7 -43 -29 0 -21
5 -24 35 -24 19 0 35 -4 35 -10 0 -5 -16 -10 -35 -10 -28 0 -35 -4 -35 -20 0
-17 7 -20 40 -20 22 0 40 -4 40 -10 0 -5 -22 -10 -50 -10 l-50 0 0 70 0 70 53
-2 c50 -1 50 -2 10 -5z m89 -29 l21 -37 21 37 c12 20 27 36 33 36 8 0 1 -19
-17 -49 -17 -26 -30 -58 -30 -70 0 -11 -4 -21 -10 -21 -5 0 -10 12 -10 26 0
14 -12 45 -26 70 -14 24 -21 44 -15 44 7 0 21 -16 33 -36z m189 -30 c30 -67
32 -96 3 -56 -10 14 -26 22 -44 22 -18 0 -34 -8 -44 -22 -9 -12 -18 -19 -22
-15 -9 9 53 137 66 137 6 0 24 -30 41 -66z m357 54 c17 -17 15 -53 -3 -68 -14
-12 -14 -15 1 -31 10 -11 14 -22 10 -27 -5 -4 -15 3 -23 16 -20 29 -63 30 -63
2 0 -11 -4 -20 -10 -20 -6 0 -10 30 -10 70 l0 70 43 0 c24 0 48 -5 55 -12z
m107 3 c-32 -5 -41 -11 -43 -28 -3 -21 1 -23 38 -23 25 0 39 -4 35 -10 -3 -5
-22 -10 -41 -10 -27 0 -34 -4 -34 -20 0 -17 7 -20 39 -20 22 0 43 -4 46 -10 4
-6 -15 -10 -49 -10 l-56 0 0 70 0 70 53 -1 c51 -2 51 -2 12 -8z m138 2 c-38
-4 -43 -7 -43 -29 0 -21 5 -24 35 -24 19 0 35 -4 35 -10 0 -5 -16 -10 -35 -10
-28 0 -35 -4 -35 -20 0 -17 7 -20 40 -20 22 0 40 -4 40 -10 0 -5 -25 -10 -55
-10 l-55 0 0 70 0 70 58 -2 c49 -1 51 -2 15 -5z m126 -40 l40 -48 1 48 c0 26
5 47 10 47 6 0 10 -30 10 -70 0 -38 -4 -70 -9 -70 -5 0 -27 24 -48 52 l-38 53
-3 -53 c-5 -77 -22 -63 -22 18 0 39 4 70 9 70 5 0 27 -21 50 -47z m224 40
c-38 -4 -43 -7 -43 -29 0 -21 5 -24 36 -24 21 0 33 -4 29 -10 -3 -5 -19 -10
-36 -10 -22 0 -29 -5 -29 -20 0 -17 7 -20 40 -20 22 0 40 -4 40 -10 0 -5 -25
-10 -55 -10 l-55 0 0 70 0 70 58 -2 c49 -1 51 -2 15 -5z m124 -44 l38 -50 3
50 c5 77 22 61 22 -19 0 -38 -4 -70 -9 -70 -5 0 -28 23 -50 51 l-41 52 0 -52
c0 -28 -4 -51 -10 -51 -6 0 -10 30 -10 70 0 39 4 70 10 70 5 0 27 -23 47 -51z
m166 44 c-38 -4 -43 -7 -43 -29 0 -21 5 -24 35 -24 19 0 35 -4 35 -10 0 -5
-16 -10 -35 -10 -28 0 -35 -4 -35 -20 0 -17 7 -20 40 -20 22 0 40 -4 40 -10 0
-5 -22 -10 -50 -10 l-50 0 0 70 0 70 53 -2 c50 -1 50 -2 10 -5z m175 -5 c16
-16 15 -53 -3 -68 -12 -10 -12 -15 2 -36 9 -15 11 -24 4 -24 -6 0 -16 9 -23
20 -7 11 -23 20 -35 20 -16 0 -23 -6 -23 -20 0 -11 -7 -20 -15 -20 -12 0 -15
14 -15 70 l0 70 48 0 c26 0 53 -5 60 -12z m215 -18 c10 -16 21 -30 25 -30 4 0
16 14 25 30 10 17 22 30 28 30 14 0 12 -6 -16 -50 -14 -22 -25 -51 -25 -65 0
-14 -4 -25 -10 -25 -5 0 -10 10 -10 23 0 12 -11 40 -25 62 -13 22 -25 43 -25
48 0 17 17 5 33 -23z m8894 -1 c58 -22 59 -63 2 -80 -55 -17 -142 1 -169 33
-23 27 -25 44 -7 51 23 10 146 7 174 -4z m1011 -22 c21 -17 14 -65 -13 -83
-44 -29 -94 9 -81 62 10 39 57 49 94 21z m-118 -113 c0 -8 5 -14 10 -14 6 0
10 7 10 15 0 8 5 15 10 15 6 0 10 -7 10 -15 0 -11 12 -15 45 -15 25 0 45 -4
45 -10 0 -5 -20 -10 -44 -10 -26 0 -46 -5 -49 -12 -4 -9 -8 -10 -14 -2 -4 6
-16 13 -25 17 -11 4 -18 17 -18 32 0 15 4 24 10 20 6 -3 10 -13 10 -21z"/>
<path d="M1310 6779 c0 -5 4 -8 9 -5 5 4 11 2 13 -3 1 -5 9 -3 16 5 11 12 9
14 -13 14 -14 0 -25 -5 -25 -11z"/>
<path d="M1393 6783 c-20 -7 -15 -23 7 -23 11 0 20 4 20 9 0 13 -12 19 -27 14z"/>
<path d="M1441 6781 c-10 -7 -10 -10 -1 -16 6 -4 16 -3 22 3 13 13 -4 23 -21
13z"/>
<path d="M1515 6781 c-3 -5 -2 -12 3 -15 5 -3 9 1 9 9 0 17 -3 19 -12 6z"/>
<path d="M1541 6774 c0 -11 3 -14 6 -6 3 7 2 16 -1 19 -3 4 -6 -2 -5 -13z"/>
<path d="M1486 6765 c4 -8 8 -15 10 -15 2 0 4 7 4 15 0 8 -4 15 -10 15 -5 0
-7 -7 -4 -15z"/>
<path d="M2750 6940 c-24 -24 -25 -48 -4 -78 19 -27 64 -29 87 -4 24 26 21 68
-5 86 -30 21 -54 20 -78 -4z"/>
<path d="M4150 6940 c-25 -25 -26 -62 -2 -83 39 -35 102 -9 102 41 0 28 -34
62 -60 62 -11 0 -29 -9 -40 -20z"/>
<path d="M4847 6915 l-17 -35 30 0 c35 0 34 -2 17 39 l-13 31 -17 -35z"/>
<path d="M4990 6924 c0 -34 1 -35 31 -32 43 4 61 34 35 54 -11 8 -30 14 -43
14 -20 0 -23 -5 -23 -36z"/>
<path d="M5740 6940 c-25 -25 -26 -62 -2 -83 39 -35 102 -9 102 41 0 28 -34
62 -60 62 -11 0 -29 -9 -40 -20z"/>
<path d="M6090 6926 c0 -34 2 -36 35 -36 63 0 59 62 -4 68 -30 3 -31 2 -31
-32z"/>
<path d="M6590 6926 c0 -34 2 -36 35 -36 63 0 59 62 -4 68 -30 3 -31 2 -31
-32z"/>
<path d="M7840 6926 c0 -34 2 -36 35 -36 63 0 59 62 -4 68 -30 3 -31 2 -31
-32z"/>
<path d="M7990 6925 c0 -33 2 -35 35 -35 24 0 37 6 45 19 13 26 -11 51 -51 51
-27 0 -29 -3 -29 -35z"/>
<path d="M8160 6940 c-24 -24 -25 -48 -4 -78 18 -26 65 -30 88 -6 24 23 20 70
-6 88 -30 21 -54 20 -78 -4z"/>
<path d="M9732 6915 c-16 -35 -16 -35 17 -35 28 0 29 1 18 30 -14 37 -20 37
-35 5z"/>
<path d="M10674 6935 c-18 -19 -23 -31 -19 -48 20 -67 118 -60 118 8 0 30 -33
65 -60 65 -7 0 -25 -11 -39 -25z"/>
<path d="M11172 6925 c-17 -37 -15 -45 13 -45 29 0 29 -1 12 39 l-13 32 -12
-26z"/>
<path d="M1440 3915 l0 -85 75 0 c67 0 79 3 100 25 35 34 33 78 -4 116 -27 27
-35 29 -100 29 l-71 0 0 -85z"/>
<path d="M1907 3890 l-36 -80 75 0 c41 0 74 3 74 8 0 12 -65 152 -71 152 -3 0
-22 -36 -42 -80z"/>
<path d="M2290 3855 l0 -145 80 0 c127 0 180 42 180 143 0 99 -62 147 -188
147 l-72 0 0 -145z"/>
<path d="M1282 3019 c-79 -39 -120 -139 -93 -222 7 -20 30 -51 51 -71 75 -67
177 -71 249 -9 23 19 41 38 41 43 0 5 -14 18 -30 30 l-30 22 -31 -26 c-68 -57
-159 -20 -159 64 0 52 13 76 51 96 39 19 82 11 113 -23 l24 -26 31 22 c36 26
37 29 15 60 -41 58 -156 77 -232 40z"/>
<path d="M1762 3013 c-5 -16 -39 -94 -76 -174 -36 -81 -66 -149 -66 -153 0
-13 88 -6 100 9 9 10 32 15 75 15 47 0 64 -4 69 -15 4 -10 20 -15 51 -15 25 0
45 3 45 7 0 3 -34 84 -76 180 -80 181 -101 206 -122 146z m57 -225 c1 -5 -12
-8 -29 -8 -35 0 -34 -3 -14 46 l17 39 13 -35 c7 -19 13 -38 13 -42z"/>
<path d="M2985 3026 c-38 -17 -90 -72 -104 -109 -15 -39 -14 -91 3 -130 30
-72 129 -126 205 -112 94 18 152 76 159 162 6 67 -2 94 -35 134 -52 61 -157
87 -228 55z m112 -76 c35 -13 63 -56 63 -100 0 -48 -47 -90 -100 -90 -56 0
-90 34 -90 90 0 51 12 75 48 94 33 18 41 19 79 6z"/>
<path d="M3370 2860 l0 -180 50 0 50 0 0 86 0 86 99 -92 c55 -51 105 -89 110
-85 7 4 11 69 11 181 l0 174 -45 0 -44 0 -3 -87 -3 -88 -96 93 c-52 50 -103
92 -112 92 -15 0 -17 -18 -17 -180z"/>
<path d="M4152 3033 c-13 -3 -43 -23 -67 -46 -72 -70 -81 -158 -24 -239 68
-96 241 -98 303 -4 15 24 14 25 -19 46 l-35 22 -31 -26 c-50 -42 -119 -35
-144 15 -47 90 29 183 118 145 19 -8 39 -22 45 -31 8 -16 12 -16 46 7 l36 25
-21 27 c-42 54 -119 76 -207 59z"/>
<path d="M6384 3022 c-45 -29 -60 -72 -42 -120 11 -30 26 -43 78 -70 71 -37
84 -50 68 -69 -16 -20 -54 -15 -85 11 l-28 24 -30 -24 -30 -24 31 -31 c60 -60
167 -59 218 2 52 61 26 123 -69 169 -47 23 -65 36 -65 51 0 24 36 26 68 4 23
-17 47 -10 70 18 9 11 5 20 -18 42 -39 38 -120 46 -166 17z"/>
<path d="M2070 2855 l0 -175 45 0 45 0 0 55 c0 50 2 55 23 55 15 -1 33 -17 60
-55 37 -54 39 -55 88 -55 56 0 56 -4 0 74 -28 40 -32 51 -23 65 51 70 50 133
-4 181 -34 29 -38 30 -134 30 l-100 0 0 -175z m178 67 c5 -33 -15 -52 -54 -52
-33 0 -34 1 -34 41 l0 40 43 -3 c35 -3 43 -7 45 -26z"/>
<path d="M2490 2855 l0 -175 101 0 c55 0 110 5 122 11 59 30 77 110 34 152
-18 19 -22 32 -19 75 4 46 1 55 -26 82 -29 29 -34 30 -121 30 l-91 0 0 -175z
m150 86 c12 -23 -10 -51 -41 -51 -20 0 -36 40 -24 59 11 18 54 12 65 -8z m35
-151 c0 -23 -4 -25 -47 -28 -48 -3 -48 -3 -48 28 0 31 0 31 48 28 43 -3 47 -5
47 -28z"/>
<path d="M4500 2855 l0 -175 45 0 45 0 0 55 c0 48 3 55 20 55 12 0 33 -20 57
-55 38 -54 38 -54 91 -55 l54 0 -45 63 -45 62 23 29 c44 55 37 126 -16 170
-28 24 -38 26 -130 26 l-99 0 0 -175z m176 70 c8 -34 -11 -55 -52 -55 -33 0
-34 1 -34 40 0 40 0 40 40 40 34 0 41 -4 46 -25z"/>
<path d="M4911 2855 l-1 -175 130 0 130 0 0 40 0 40 -80 0 -80 0 0 29 c0 29 2
30 53 33 l52 3 3 38 3 37 -55 0 c-53 0 -56 1 -56 25 0 24 2 25 75 25 l75 0 0
40 0 40 -125 0 -124 0 0 -175z"/>
<path d="M5290 2855 l0 -175 90 0 c106 0 152 18 196 75 60 79 35 200 -50 250
-38 22 -55 25 -139 25 l-97 0 0 -175z m202 65 c11 -14 18 -39 18 -64 0 -55
-32 -88 -87 -90 l-38 -1 -3 94 -3 94 48 -6 c32 -3 53 -12 65 -27z"/>
<path d="M5730 2855 l0 -175 45 0 45 0 0 175 0 175 -45 0 -45 0 0 -175z"/>
<path d="M5930 2990 l0 -40 50 0 50 0 0 -135 0 -135 50 0 50 0 0 135 0 135 50
0 50 0 0 40 0 40 -150 0 -150 0 0 -40z"/>
<path d="M13182 2468 c-7 -7 -12 -33 -12 -60 0 -54 15 -68 72 -68 48 0 60 12
65 64 5 40 3 46 -13 46 -15 0 -19 -7 -19 -37 0 -35 -2 -38 -32 -41 -27 -3 -35
1 -45 22 -9 22 -8 29 7 47 13 13 26 18 41 15 13 -4 26 -1 29 4 4 6 11 7 17 4
7 -4 8 -2 4 4 -9 16 -99 15 -114 0z"/>
<path d="M13221 2426 c-16 -19 -6 -36 20 -36 15 0 20 6 17 22 -4 27 -21 33
-37 14z"/>
<path d="M1499 1997 c-65 -43 -86 -125 -50 -195 26 -50 73 -76 138 -76 56 0
90 17 126 66 26 35 27 114 1 159 -39 68 -148 91 -215 46z"/>
<path d="M3049 1997 c-65 -43 -86 -125 -50 -195 26 -50 73 -76 138 -76 56 0
90 17 126 66 26 35 27 114 1 159 -39 68 -148 91 -215 46z"/>
<path d="M3539 1997 c-97 -65 -88 -206 16 -257 147 -71 280 89 190 227 -36 54
-146 70 -206 30z"/>
<path d="M1960 1935 l0 -85 75 0 c67 0 79 3 100 25 27 26 32 60 14 98 -16 34
-49 47 -124 47 l-65 0 0 -85z"/>
<path d="M4000 1876 l0 -146 83 0 c63 0 89 4 113 19 60 37 83 136 44 198 -31
52 -63 66 -156 71 l-84 5 0 -147z"/>
<path d="M13225 1366 c-12 -9 -15 -19 -10 -35 9 -30 59 -26 63 6 4 29 -28 47
-53 29z"/>
<path d="M1691 1140 c-10 -29 -9 -30 20 -30 l30 0 -16 30 c-9 17 -17 30 -19
30 -2 0 -9 -13 -15 -30z"/>
<path d="M2030 1155 c0 -28 4 -35 19 -35 54 0 72 43 25 60 -39 15 -44 13 -44
-25z"/>
<path d="M3090 1155 c0 -33 2 -36 26 -33 31 3 54 32 39 47 -6 5 -22 13 -37 16
-27 7 -28 5 -28 -30z"/>
<path d="M13217 1134 c-13 -14 -7 -43 12 -53 24 -13 55 8 50 35 -4 19 -48 32
-62 18z"/>
</g>
</svg>
